REM DIRINDEX 1\2,1\3,1\4,1\6,1\5\7,1\5\8
REM DIRNAME cjc114,folder01,folder02,folder03,folder04,folder05,folder06,folder07
TITLE ""
FILE "DB4500_5th_1A_08.mp3" MP3
  TRACK 01 AUDIO
    TITLE "0:"
    INDEX 01 00:00:00
  TRACK 02 AUDIO
    TITLE "2:cjc114_0153"
    INDEX 01 00:00:05
  TRACK 03 AUDIO
    TITLE "0:"
    INDEX 01 00:01:40
  TRACK 04 AUDIO
    TITLE "3:cjc114_0154"
    INDEX 01 00:01:64
  TRACK 05 AUDIO
    TITLE "0:"
    INDEX 01 00:03:14
  TRACK 06 AUDIO
    TITLE "4:cjc114_0155"
    INDEX 01 00:03:39
  TRACK 07 AUDIO
    TITLE "0:"
    INDEX 01 00:06:26
  TRACK 08 AUDIO
    TITLE "2:cjc114_0156"
    INDEX 01 00:07:00
  TRACK 09 AUDIO
    TITLE "0:"
    INDEX 01 00:08:30
  TRACK 10 AUDIO
    TITLE "3:cjc114_0157"
    INDEX 01 00:08:54
  TRACK 11 AUDIO
    TITLE "0:"
    INDEX 01 00:09:73
  TRACK 12 AUDIO
    TITLE "4:cjc114_0158"
    INDEX 01 00:10:19
  TRACK 13 AUDIO
    TITLE "0:"
    INDEX 01 00:14:33
  TRACK 14 AUDIO
    TITLE "2:cjc114_0159"
    INDEX 01 00:15:05
  TRACK 15 AUDIO
    TITLE "0:"
    INDEX 01 00:16:08
  TRACK 16 AUDIO
    TITLE "3:cjc114_0160"
    INDEX 01 00:16:32
  TRACK 17 AUDIO
    TITLE "0:"
    INDEX 01 00:17:53
  TRACK 18 AUDIO
    TITLE "4:cjc114_0161"
    INDEX 01 00:18:05
  TRACK 19 AUDIO
    TITLE "0:"
    INDEX 01 00:21:74
  TRACK 20 AUDIO
    TITLE "2:cjc114_0162"
    INDEX 01 00:22:50
  TRACK 21 AUDIO
    TITLE "0:"
    INDEX 01 00:23:48
  TRACK 22 AUDIO
    TITLE "3:cjc114_0163"
    INDEX 01 00:23:71
  TRACK 23 AUDIO
    TITLE "0:"
    INDEX 01 00:25:03
  TRACK 24 AUDIO
    TITLE "4:cjc114_0164"
    INDEX 01 00:25:27
  TRACK 25 AUDIO
    TITLE "0:"
    INDEX 01 00:27:55
  TRACK 26 AUDIO
    TITLE "4:cjc114_0165"
    INDEX 01 00:28:31
  TRACK 27 AUDIO
    TITLE "0:"
    INDEX 01 00:31:08
  TRACK 28 AUDIO
    TITLE "2:cjc114_0166"
    INDEX 01 00:31:57
  TRACK 29 AUDIO
    TITLE "0:"
    INDEX 01 00:32:72
  TRACK 30 AUDIO
    TITLE "3:cjc114_0167"
    INDEX 01 00:33:22
  TRACK 31 AUDIO
    TITLE "0:"
    INDEX 01 00:34:22
  TRACK 32 AUDIO
    TITLE "4:cjc114_0168"
    INDEX 01 00:34:43
  TRACK 33 AUDIO
    TITLE "0:"
    INDEX 01 00:38:02
  TRACK 34 AUDIO
    TITLE "2:cjc114_0169"
    INDEX 01 00:38:51
  TRACK 35 AUDIO
    TITLE "0:"
    INDEX 01 00:39:56
  TRACK 36 AUDIO
    TITLE "3:cjc114_0170"
    INDEX 01 00:40:07
  TRACK 37 AUDIO
    TITLE "0:"
    INDEX 01 00:41:38
  TRACK 38 AUDIO
    TITLE "4:cjc114_0171"
    INDEX 01 00:41:61
  TRACK 39 AUDIO
    TITLE "0:"
    INDEX 01 00:44:50
  TRACK 40 AUDIO
    TITLE "2:cjc114_0172"
    INDEX 01 00:45:24
  TRACK 41 AUDIO
    TITLE "0:"
    INDEX 01 00:46:19
  TRACK 42 AUDIO
    TITLE "3:cjc114_0173"
    INDEX 01 00:46:45
  TRACK 43 AUDIO
    TITLE "0:"
    INDEX 01 00:48:00
  TRACK 44 AUDIO
    TITLE "4:cjc114_0174"
    INDEX 01 00:48:24
  TRACK 45 AUDIO
    TITLE "0:"
    INDEX 01 00:52:22
  TRACK 46 AUDIO
    TITLE "2:cjc114_0175"
    INDEX 01 00:52:67
  TRACK 47 AUDIO
    TITLE "0:"
    INDEX 01 00:53:72
  TRACK 48 AUDIO
    TITLE "3:cjc114_0176"
    INDEX 01 00:54:27
  TRACK 49 AUDIO
    TITLE "0:"
    INDEX 01 00:55:42
  TRACK 50 AUDIO
    TITLE "4:cjc114_0177"
    INDEX 01 00:55:69
  TRACK 51 AUDIO
    TITLE "0:"
    INDEX 01 00:58:69
  TRACK 52 AUDIO
    TITLE "4:cjc114_0178"
    INDEX 01 00:59:47
  TRACK 53 AUDIO
    TITLE "0:"
    INDEX 01 01:02:50
  TRACK 54 AUDIO
    TITLE "2:cjc114_0179"
    INDEX 01 01:03:27
  TRACK 55 AUDIO
    TITLE "0:"
    INDEX 01 01:04:31
  TRACK 56 AUDIO
    TITLE "3:cjc114_0180"
    INDEX 01 01:04:58
  TRACK 57 AUDIO
    TITLE "0:"
    INDEX 01 01:05:56
  TRACK 58 AUDIO
    TITLE "4:cjc114_0181"
    INDEX 01 01:06:08
  TRACK 59 AUDIO
    TITLE "0:"
    INDEX 01 01:08:03
  TRACK 60 AUDIO
    TITLE "4:cjc114_0182"
    INDEX 01 01:09:03
  TRACK 61 AUDIO
    TITLE "0:"
    INDEX 01 01:11:11
  TRACK 62 AUDIO
    TITLE "2:cjc114_0183"
    INDEX 01 01:11:64
  TRACK 63 AUDIO
    TITLE "0:"
    INDEX 01 01:12:66
  TRACK 64 AUDIO
    TITLE "3:cjc114_0184"
    INDEX 01 01:13:18
  TRACK 65 AUDIO
    TITLE "0:"
    INDEX 01 01:14:23
  TRACK 66 AUDIO
    TITLE "4:cjc114_0185"
    INDEX 01 01:14:51
  TRACK 67 AUDIO
    TITLE "0:"
    INDEX 01 01:16:54
  TRACK 68 AUDIO
    TITLE "4:cjc114_0186"
    INDEX 01 01:17:30
  TRACK 69 AUDIO
    TITLE "0:"
    INDEX 01 01:19:36
  TRACK 70 AUDIO
    TITLE "2:cjc114_0187"
    INDEX 01 01:20:16
  TRACK 71 AUDIO
    TITLE "0:"
    INDEX 01 01:21:20
  TRACK 72 AUDIO
    TITLE "3:cjc114_0188"
    INDEX 01 01:21:47
  TRACK 73 AUDIO
    TITLE "0:"
    INDEX 01 01:22:64
  TRACK 74 AUDIO
    TITLE "4:cjc114_0189"
    INDEX 01 01:23:18
  TRACK 75 AUDIO
    TITLE "0:"
    INDEX 01 01:25:43
  TRACK 76 AUDIO
    TITLE "4:cjc114_0190"
    INDEX 01 01:26:21
  TRACK 77 AUDIO
    TITLE "0:"
    INDEX 01 01:28:51
